<svg width="91" height="93" viewBox="0 0 91 93" fill="none" xmlns="http://www.w3.org/2000/svg">
<path fill-rule="evenodd" clip-rule="evenodd" d="M42.1441 0.00931836C63.69 -0.434981 82.2158 15.0593 88.4839 35.678C94.404 55.1523 85.5507 75.8731 68.6589 87.2292C53.4798 97.4338 33.9922 93.0714 19.2828 82.2007C4.9999 71.6453 -3.42395 54.5856 1.33528 37.4751C6.80622 17.806 21.7326 0.430227 42.1441 0.00931836Z" fill="#E8EFF4"/>
<g clip-path="url(#clip0_7_221)">
<path d="M30.9167 45.0417H46.9583C47.7319 45.0417 48.4737 44.7344 49.0207 44.1874C49.5677 43.6404 49.875 42.8985 49.875 42.125V31.9167C49.875 31.1431 49.5677 30.4013 49.0207 29.8543C48.4737 29.3073 47.7319 29 46.9583 29H30.9167C30.1431 29 29.4013 29.3073 28.8543 29.8543C28.3073 30.4013 28 31.1431 28 31.9167V42.125C28 42.8985 28.3073 43.6404 28.8543 44.1874C29.4013 44.7344 30.1431 45.0417 30.9167 45.0417ZM30.9167 31.9167H46.9583V42.125H30.9167V31.9167Z" fill="#2E53F2"/>
<path d="M60.0837 29H55.7087C54.9351 29 54.1932 29.3073 53.6463 29.8543C53.0993 30.4013 52.792 31.1431 52.792 31.9167V42.125C52.792 42.8985 53.0993 43.6404 53.6463 44.1874C54.1932 44.7344 54.9351 45.0417 55.7087 45.0417H60.0837C60.8572 45.0417 61.5991 44.7344 62.1461 44.1874C62.693 43.6404 63.0003 42.8985 63.0003 42.125V31.9167C63.0003 31.1431 62.693 30.4013 62.1461 29.8543C61.5991 29.3073 60.8572 29 60.0837 29V29ZM60.0837 42.125H55.7087V31.9167H60.0837V42.125Z" fill="#2E53F2"/>
<path d="M35.2917 47.959H30.9167C30.1431 47.959 29.4013 48.2663 28.8543 48.8133C28.3073 49.3602 28 50.1021 28 50.8756V61.084C28 61.8575 28.3073 62.5994 28.8543 63.1464C29.4013 63.6933 30.1431 64.0006 30.9167 64.0006H35.2917C36.0652 64.0006 36.8071 63.6933 37.3541 63.1464C37.901 62.5994 38.2083 61.8575 38.2083 61.084V50.8756C38.2083 50.1021 37.901 49.3602 37.3541 48.8133C36.8071 48.2663 36.0652 47.959 35.2917 47.959ZM35.2917 61.084H30.9167V50.8756H35.2917V61.084Z" fill="#2E53F2"/>
<path d="M60.0833 47.959H44.0417C43.2681 47.959 42.5263 48.2663 41.9793 48.8133C41.4323 49.3602 41.125 50.1021 41.125 50.8756V61.084C41.125 61.8575 41.4323 62.5994 41.9793 63.1464C42.5263 63.6933 43.2681 64.0006 44.0417 64.0006H60.0833C60.8569 64.0006 61.5987 63.6933 62.1457 63.1464C62.6927 62.5994 63 61.8575 63 61.084V50.8756C63 50.1021 62.6927 49.3602 62.1457 48.8133C61.5987 48.2663 60.8569 47.959 60.0833 47.959ZM60.0833 61.084H44.0417V50.8756H60.0833V61.084Z" fill="#2E53F2"/>
</g>
<defs>
<clipPath id="clip0_7_221">
<rect width="35" height="35" fill="white" transform="translate(28 29)"/>
</clipPath>
</defs>
</svg>
