<svg width="93" height="91" viewBox="0 0 93 91" fill="none" xmlns="http://www.w3.org/2000/svg">
<path fill-rule="evenodd" clip-rule="evenodd" d="M45.3228 0.00163843C67.5043 -0.190645 86.3315 16.565 91.9955 38.0121C96.8658 56.4536 83.2768 72.995 67.3857 83.544C53.7957 92.5655 36.645 92.8555 23.1235 83.7316C7.83425 73.4149 -3.65115 56.6286 1.07569 38.8002C6.63354 17.8374 23.6365 0.189629 45.3228 0.00163843Z" fill="#E8EFF4"/>
<g clip-path="url(#clip0_7_221)">
<path d="M46.5001 38.6675C45.3464 38.6675 44.2185 39.0096 43.2593 39.6506C42.3 40.2915 41.5523 41.2026 41.1108 42.2685C40.6693 43.3344 40.5538 44.5073 40.7788 45.6388C41.0039 46.7704 41.5595 47.8098 42.3753 48.6256C43.1911 49.4414 44.2305 49.997 45.3621 50.2221C46.4936 50.4471 47.6665 50.3316 48.7324 49.8901C49.7983 49.4486 50.7093 48.7009 51.3503 47.7416C51.9913 46.7824 52.3334 45.6545 52.3334 44.5008C52.3334 42.9537 51.7188 41.47 50.6249 40.376C49.5309 39.2821 48.0472 38.6675 46.5001 38.6675V38.6675ZM46.5001 47.4175C45.9232 47.4175 45.3593 47.2464 44.8797 46.9259C44.4 46.6054 44.0262 46.1499 43.8054 45.617C43.5847 45.084 43.5269 44.4976 43.6395 43.9318C43.752 43.366 44.0298 42.8463 44.4377 42.4384C44.8456 42.0305 45.3653 41.7527 45.9311 41.6402C46.4968 41.5276 47.0833 41.5854 47.6162 41.8062C48.1492 42.0269 48.6047 42.4008 48.9252 42.8804C49.2457 43.36 49.4168 43.924 49.4168 44.5008C49.4168 45.2744 49.1095 46.0162 48.5625 46.5632C48.0155 47.1102 47.2736 47.4175 46.5001 47.4175Z" fill="#2E53F2"/>
<path d="M60.0538 47.2708L59.4063 46.8975C59.6978 45.3115 59.6978 43.6856 59.4063 42.0996L60.0538 41.7262C60.5517 41.439 60.9882 41.0565 61.3383 40.6005C61.6884 40.1446 61.9452 39.6241 62.0942 39.0689C62.2432 38.5137 62.2813 37.9346 62.2064 37.3646C62.1316 36.7946 61.9452 36.245 61.658 35.7471C61.3707 35.2492 60.9882 34.8127 60.5322 34.4626C60.0763 34.1125 59.5558 33.8556 59.0006 33.7067C58.4454 33.5577 57.8663 33.5196 57.2963 33.5944C56.7263 33.6693 56.1767 33.8556 55.6788 34.1429L55.0298 34.5177C53.8041 33.4705 52.3956 32.6587 50.875 32.1231V31.375C50.875 30.2147 50.4141 29.1019 49.5936 28.2814C48.7732 27.4609 47.6604 27 46.5 27C45.3397 27 44.2269 27.4609 43.4064 28.2814C42.586 29.1019 42.125 30.2147 42.125 31.375V32.1231C40.6046 32.6606 39.1965 33.4744 37.9717 34.5235L37.3198 34.1458C36.3142 33.5657 35.1193 33.4088 33.998 33.7096C32.8767 34.0104 31.9208 34.7444 31.3407 35.75C30.7605 36.7556 30.6036 37.9505 30.9044 39.0718C31.2053 40.1931 31.9392 41.149 32.9448 41.7292L33.5923 42.1025C33.3008 43.6885 33.3008 45.3144 33.5923 46.9004L32.9448 47.2738C31.9392 47.8539 31.2053 48.8098 30.9044 49.9311C30.6036 51.0524 30.7605 52.2473 31.3407 53.2529C31.9208 54.2585 32.8767 54.9925 33.998 55.2933C35.1193 55.5942 36.3142 55.4372 37.3198 54.8571L37.9688 54.4823C39.1949 55.5296 40.604 56.3415 42.125 56.8769V57.625C42.125 58.7853 42.586 59.8981 43.4064 60.7186C44.2269 61.5391 45.3397 62 46.5 62C47.6604 62 48.7732 61.5391 49.5936 60.7186C50.4141 59.8981 50.875 58.7853 50.875 57.625V56.8769C52.3955 56.3394 53.8036 55.5256 55.0284 54.4765L55.6802 54.8527C56.6859 55.4329 57.8807 55.5898 59.0021 55.289C60.1234 54.9881 61.0792 54.2542 61.6594 53.2485C62.2396 52.2429 62.3965 51.048 62.0957 49.9267C61.7948 48.8054 61.0609 47.8495 60.0552 47.2694L60.0538 47.2708ZM56.338 41.7642C56.8318 43.5536 56.8318 45.4434 56.338 47.2329C56.2517 47.5444 56.2714 47.8757 56.3939 48.1747C56.5163 48.4738 56.7347 48.7237 57.0146 48.8852L58.5955 49.7981C58.9306 49.9915 59.1752 50.3101 59.2754 50.6838C59.3756 51.0576 59.3233 51.4558 59.1299 51.7909C58.9365 52.1261 58.6179 52.3707 58.2442 52.4709C57.8705 52.5711 57.4723 52.5188 57.1371 52.3254L55.5534 51.4096C55.2732 51.2473 54.947 51.1829 54.6262 51.2265C54.3054 51.27 54.0082 51.4191 53.7815 51.6502C52.4834 52.9753 50.8482 53.9208 49.0521 54.3846C48.7386 54.4652 48.4609 54.6478 48.2626 54.9036C48.0643 55.1595 47.9567 55.474 47.9569 55.7977V57.625C47.9569 58.0118 47.8033 58.3827 47.5298 58.6562C47.2563 58.9297 46.8853 59.0833 46.4986 59.0833C46.1118 59.0833 45.7409 58.9297 45.4674 58.6562C45.1939 58.3827 45.0402 58.0118 45.0402 57.625V55.7992C45.0404 55.4755 44.9329 55.1609 44.7346 54.9051C44.5363 54.6492 44.2585 54.4666 43.945 54.386C42.1489 53.9204 40.5141 52.9729 39.2171 51.6458C38.9904 51.4147 38.6932 51.2657 38.3724 51.2221C38.0516 51.1785 37.7254 51.2429 37.4452 51.4052L35.8644 52.3196C35.6985 52.4169 35.515 52.4803 35.3244 52.5064C35.1339 52.5324 34.94 52.5206 34.7541 52.4714C34.5682 52.4222 34.3938 52.3368 34.241 52.22C34.0882 52.1031 33.9601 51.9572 33.8639 51.7907C33.7678 51.6241 33.7055 51.4402 33.6807 51.2495C33.6559 51.0588 33.6691 50.865 33.7195 50.6794C33.7699 50.4938 33.8565 50.32 33.9743 50.168C34.0921 50.016 34.2389 49.8888 34.4061 49.7938L35.9869 48.8808C36.2668 48.7193 36.4852 48.4694 36.6077 48.1703C36.7301 47.8713 36.7498 47.54 36.6636 47.2285C36.1697 45.4391 36.1697 43.5493 36.6636 41.7598C36.7483 41.449 36.7276 41.1189 36.605 40.8211C36.4823 40.5232 36.2645 40.2743 35.9854 40.1133L34.4046 39.2004C34.0695 39.007 33.8249 38.6884 33.7247 38.3147C33.6244 37.941 33.6767 37.5427 33.8701 37.2076C34.0635 36.8725 34.3821 36.6279 34.7558 36.5276C35.1296 36.4274 35.5278 36.4797 35.8629 36.6731L37.4467 37.589C37.7261 37.7516 38.0516 37.8168 38.3721 37.7743C38.6925 37.7318 38.9898 37.584 39.2171 37.3542C40.5152 36.029 42.1504 35.0836 43.9465 34.6198C44.261 34.5389 44.5394 34.3555 44.7378 34.0984C44.9362 33.8414 45.0432 33.5255 45.0417 33.2008V31.375C45.0417 30.9882 45.1953 30.6173 45.4688 30.3438C45.7423 30.0703 46.1133 29.9167 46.5 29.9167C46.8868 29.9167 47.2577 30.0703 47.5312 30.3438C47.8047 30.6173 47.9584 30.9882 47.9584 31.375V33.2008C47.9582 33.5245 48.0657 33.8391 48.264 34.0949C48.4623 34.3508 48.7401 34.5334 49.0536 34.614C50.8503 35.0794 52.4856 36.0269 53.7829 37.3542C54.0097 37.5853 54.3069 37.7343 54.6277 37.7779C54.9485 37.8215 55.2747 37.7571 55.5548 37.5948L57.1357 36.6804C57.3016 36.5831 57.4851 36.5197 57.6756 36.4936C57.8662 36.4676 58.06 36.4794 58.246 36.5286C58.4319 36.5778 58.6063 36.6632 58.759 36.78C58.9118 36.8969 59.04 37.0428 59.1361 37.2093C59.2323 37.3759 59.2946 37.5598 59.3194 37.7505C59.3442 37.9412 59.331 38.135 59.2806 38.3206C59.2302 38.5062 59.1436 38.68 59.0258 38.832C58.9079 38.984 58.7612 39.1112 58.594 39.2063L57.0132 40.1192C56.7347 40.2806 56.5175 40.5297 56.3953 40.8275C56.2732 41.1253 56.253 41.4551 56.338 41.7656V41.7642Z" fill="#2E53F2"/>
</g>
<defs>
<clipPath id="clip0_7_221">
<rect width="35" height="35" fill="white" transform="translate(29 27)"/>
</clipPath>
</defs>
</svg>
