<svg width="90" height="90" viewBox="0 0 90 90" fill="none" xmlns="http://www.w3.org/2000/svg">
<g opacity="0.9" clip-path="url(#clip0_3108_52)">
<circle cx="45" cy="45" r="45" fill="#2E53F2"/>
<g clip-path="url(#clip1_3108_52)">
<path d="M58.0667 34.4386L48.7333 28.1399C47.6323 27.3911 46.3315 26.9907 45 26.9907C43.6685 26.9907 42.3677 27.3911 41.2667 28.1399L31.9333 34.4386C31.0295 35.0495 30.2895 35.8729 29.778 36.8364C29.2666 37.8 28.9994 38.8744 29 39.9653V52.3333C29.0021 54.1007 29.7052 55.7952 30.955 57.045C32.2047 58.2948 33.8992 58.9978 35.6667 58.9999H54.3333C56.1008 58.9978 57.7953 58.2948 59.045 57.045C60.2948 55.7952 60.9979 54.1007 61 52.3333V39.9653C61.0006 38.8744 60.7334 37.8 60.222 36.8364C59.7105 35.8729 58.9705 35.0495 58.0667 34.4386ZM58.3333 52.3333C58.3333 53.3941 57.9119 54.4116 57.1618 55.1617C56.4116 55.9118 55.3942 56.3333 54.3333 56.3333H35.6667C34.6058 56.3333 33.5884 55.9118 32.8382 55.1617C32.0881 54.4116 31.6667 53.3941 31.6667 52.3333V39.9653C31.6666 39.3105 31.8273 38.6657 32.1347 38.0876C32.442 37.5094 32.8866 37.0155 33.4293 36.6493L42.7627 30.3506C43.4226 29.9022 44.2021 29.6625 45 29.6625C45.7979 29.6625 46.5774 29.9022 47.2373 30.3506L56.5707 36.6493C57.1134 37.0155 57.558 37.5094 57.8653 38.0876C58.1727 38.6657 58.3334 39.3105 58.3333 39.9653V52.3333ZM45 36.3413C43.4163 36.3411 41.8682 36.8109 40.5518 37.6913C39.2354 38.5717 38.2099 39.8229 37.6052 41.2866C37.0005 42.7503 36.8438 44.3606 37.155 45.9134C37.4662 47.4662 38.2313 48.8916 39.3533 50.0093L41.7853 52.3879C42.6471 53.2225 43.7997 53.6891 44.9993 53.6891C46.199 53.6891 47.3516 53.2225 48.2133 52.3879L50.6573 49.9986C51.7763 48.8798 52.5384 47.4542 52.8472 45.9023C53.156 44.3503 52.9975 42.7416 52.3919 41.2797C51.7864 39.8177 50.7608 38.5682 49.4451 37.6892C48.1293 36.8102 46.5824 36.3411 45 36.3413ZM48.7813 48.1026L46.348 50.4826C45.9864 50.8328 45.5027 51.0286 44.9993 51.0286C44.4959 51.0286 44.0123 50.8328 43.6507 50.4826L41.228 48.1133C40.4826 47.3678 39.9748 46.4182 39.7688 45.3844C39.5628 44.3505 39.6678 43.2788 40.0706 42.3046C40.4733 41.3304 41.1557 40.4973 42.0316 39.9108C42.9075 39.3242 43.9376 39.0103 44.9918 39.0088C46.046 39.0073 47.077 39.3183 47.9545 39.9024C48.8321 40.4865 49.5168 41.3176 49.9223 42.2907C50.3278 43.2637 50.4359 44.3351 50.2328 45.3696C50.0297 46.404 49.5246 47.3551 48.7813 48.1026ZM46.3333 44.3333C46.3333 44.597 46.2551 44.8548 46.1086 45.074C45.9621 45.2933 45.7539 45.4642 45.5102 45.5651C45.2666 45.666 44.9985 45.6924 44.7399 45.641C44.4812 45.5895 44.2437 45.4625 44.0572 45.2761C43.8707 45.0896 43.7437 44.852 43.6923 44.5934C43.6408 44.3347 43.6672 44.0667 43.7682 43.823C43.8691 43.5794 44.04 43.3712 44.2592 43.2246C44.4785 43.0781 44.7363 42.9999 45 42.9999C45.3536 42.9999 45.6928 43.1404 45.9428 43.3905C46.1929 43.6405 46.3333 43.9796 46.3333 44.3333Z" fill="white"/>
</g>
</g>
<defs>
<clipPath id="clip0_3108_52">
<rect width="90" height="90" fill="white"/>
</clipPath>
<clipPath id="clip1_3108_52">
<rect width="32" height="32" fill="white" transform="translate(29 27)"/>
</clipPath>
</defs>
</svg>
