<svg width="90" height="90" viewBox="0 0 90 90" fill="none" xmlns="http://www.w3.org/2000/svg">
<g opacity="0.9" clip-path="url(#clip0_3108_49)">
<circle cx="45" cy="45" r="45" fill="#2E53F2"/>
<g clip-path="url(#clip1_3108_49)">
<path d="M47.9734 39.3639V34.0305C47.9734 33.6769 48.1139 33.3378 48.3639 33.0877C48.614 32.8377 48.9531 32.6972 49.3067 32.6972C49.6604 32.6972 49.9995 32.8377 50.2496 33.0877C50.4996 33.3378 50.6401 33.6769 50.6401 34.0305V37.5119C51.4801 36.6665 56.9081 31.2105 57.6974 30.4212C57.8204 30.2939 57.9675 30.1923 58.1302 30.1224C58.2929 30.0525 58.4678 30.0157 58.6449 30.0142C58.8219 30.0127 58.9975 30.0464 59.1614 30.1134C59.3252 30.1805 59.4741 30.2795 59.5993 30.4047C59.7245 30.5299 59.8235 30.6787 59.8905 30.8426C59.9576 31.0065 59.9913 31.182 59.9897 31.3591C59.9882 31.5361 59.9514 31.7111 59.8815 31.8738C59.8117 32.0364 59.7101 32.1835 59.5827 32.3065C58.7934 33.0959 53.3934 38.5265 52.5587 39.3639H55.9734C56.327 39.3639 56.6662 39.5044 56.9162 39.7544C57.1663 40.0045 57.3067 40.3436 57.3067 40.6972C57.3067 41.0508 57.1663 41.39 56.9162 41.64C56.6662 41.8901 56.327 42.0305 55.9734 42.0305H50.6401C49.9328 42.0305 49.2546 41.7496 48.7545 41.2495C48.2544 40.7494 47.9734 40.0711 47.9734 39.3639ZM58.7667 52.3492C59.5394 53.124 59.9733 54.1736 59.9733 55.2679C59.9733 56.3621 59.5394 57.4117 58.7667 58.1865L57.5507 59.5865C46.6294 70.0372 20.0587 43.4745 30.3507 32.5199L31.8841 31.1865C32.6596 30.4353 33.6997 30.0195 34.7794 30.0293C35.8591 30.039 36.8916 30.4734 37.6534 31.2385C37.6947 31.2785 40.1641 34.4892 40.1641 34.4892C40.8946 35.2606 41.3011 36.283 41.2996 37.3455C41.2982 38.4079 40.8888 39.4292 40.1561 40.1985L38.6121 42.1399C39.4667 44.2159 40.7231 46.1027 42.309 47.6918C43.8949 49.2809 45.7791 50.541 47.8534 51.3999L49.8067 49.8465C50.5746 49.1119 51.5958 48.7012 52.6585 48.6997C53.7211 48.6982 54.7435 49.106 55.5134 49.8385C55.5134 49.8385 58.7254 52.3092 58.7667 52.3492V52.3492ZM56.9334 54.2879C56.9334 54.2879 53.7427 51.8319 53.7014 51.7919C53.4267 51.5195 53.0556 51.3667 52.6687 51.3667C52.2819 51.3667 51.9108 51.5195 51.6361 51.7919C51.6001 51.8265 48.9107 53.9705 48.9107 53.9705C48.7295 54.1148 48.5138 54.2094 48.2849 54.2449C48.0561 54.2804 47.8219 54.2557 47.6054 54.1732C44.9166 53.1729 42.4744 51.6061 40.4442 49.5791C38.414 47.5522 36.8434 45.1124 35.8387 42.4252C35.7497 42.2058 35.7206 41.9667 35.7546 41.7323C35.7886 41.498 35.8844 41.2769 36.0321 41.0919C36.0321 41.0919 38.1761 38.4065 38.2121 38.3719C38.4844 38.0972 38.6373 37.726 38.6373 37.3392C38.6373 36.9524 38.4844 36.5812 38.2121 36.3065C38.1721 36.2665 35.7161 33.0732 35.7161 33.0732C35.4373 32.8232 35.0734 32.6893 34.6991 32.699C34.3247 32.7087 33.9683 32.8612 33.7027 33.1252L32.1694 34.4585C24.6467 43.5025 47.6761 65.2545 55.6001 57.7692L56.8161 56.3679C57.1028 56.1048 57.2754 55.7402 57.2974 55.3517C57.3193 54.9632 57.1887 54.5815 56.9334 54.2879V54.2879Z" fill="white"/>
</g>
</g>
<defs>
<clipPath id="clip0_3108_49">
<rect width="90" height="90" fill="white"/>
</clipPath>
<clipPath id="clip1_3108_49">
<rect width="32" height="32" fill="white" transform="translate(28 30)"/>
</clipPath>
</defs>
</svg>
