<svg width="91" height="93" viewBox="0 0 91 93" fill="none" xmlns="http://www.w3.org/2000/svg">
<path fill-rule="evenodd" clip-rule="evenodd" d="M43.7929 0.00980992C63.8354 -0.390182 82.6956 11.4692 88.7976 30.5645C94.8169 49.4011 85.4359 68.863 69.5646 80.6592C53.068 92.9201 30.5944 98.3212 14.058 86.114C-2.18633 74.1224 -2.59397 51.342 3.99678 32.2569C10.1584 14.4146 24.9204 0.38645 43.7929 0.00980992Z" fill="#E8EFF4"/>
<g clip-path="url(#clip0_7_221)">
<path d="M60.375 32.1545C59.5552 31.469 58.5945 30.9724 57.5611 30.6999C56.5278 30.4275 55.4471 30.3859 54.3958 30.5781L48.8221 31.5902C47.5353 31.8265 46.3652 32.4885 45.5 33.47C44.6325 32.4868 43.4591 31.8246 42.1692 31.5902L36.6042 30.5781C35.5529 30.3857 34.4723 30.4268 33.4387 30.6984C32.4051 30.9699 31.4438 31.4654 30.6229 32.1497C29.802 32.8339 29.1416 33.6903 28.6883 34.6581C28.2351 35.6259 28.0001 36.6815 28 37.7502V53.49C28.0001 55.1974 28.5993 56.8506 29.6933 58.1615C30.7873 59.4724 32.3066 60.3579 33.9865 60.6635L43.1535 62.3304C44.7051 62.6123 46.2949 62.6123 47.8465 62.3304L57.0208 60.6635C58.6993 60.3564 60.217 59.4703 61.3095 58.1595C62.402 56.8487 63.0002 55.1963 63 53.49V37.7502C63.0007 36.6819 62.7658 35.6265 62.3121 34.6594C61.8583 33.6922 61.197 32.8369 60.375 32.1545V32.1545ZM44.0417 59.5202C43.9192 59.5027 43.7967 59.4823 43.6742 59.4604L34.5085 57.795C33.5005 57.6116 32.5888 57.0802 31.9324 56.2934C31.276 55.5067 30.9165 54.5146 30.9167 53.49V37.7502C30.9167 36.5898 31.3776 35.477 32.1981 34.6566C33.0185 33.8361 34.1313 33.3752 35.2917 33.3752C35.5558 33.3758 35.8193 33.3997 36.0792 33.4466L41.65 34.4675C42.3203 34.5901 42.9264 34.9436 43.3633 35.4665C43.8002 35.9894 44.0402 36.6488 44.0417 37.3302V59.5202ZM60.0833 53.49C60.0835 54.5146 59.724 55.5067 59.0676 56.2934C58.4112 57.0802 57.4995 57.6116 56.4915 57.795L47.3258 59.4604C47.2033 59.4823 47.0808 59.5027 46.9583 59.5202V37.3302C46.9582 36.6471 47.1979 35.9857 47.6355 35.4612C48.0731 34.9367 48.6809 34.5824 49.3529 34.4602L54.9252 33.4393C55.5563 33.3245 56.2048 33.3499 56.825 33.5136C57.4452 33.6773 58.0217 33.9754 58.5139 34.3867C59.0061 34.798 59.4018 35.3125 59.673 35.8937C59.9442 36.475 60.0843 37.1088 60.0833 37.7502V53.49Z" fill="#2E53F2"/>
</g>
<defs>
<clipPath id="clip0_7_221">
<rect width="35" height="35" fill="white" transform="translate(28 29)"/>
</clipPath>
</defs>
</svg>
