<svg width="85" height="93" viewBox="0 0 85 93" fill="none" xmlns="http://www.w3.org/2000/svg">
<path fill-rule="evenodd" clip-rule="evenodd" d="M48.6573 0.080539C68.0415 1.29937 75.4298 23.1851 80.7944 41.852C85.3958 57.8633 86.7342 76.3669 73.4822 86.4625C59.4847 97.1259 40.325 93.6881 25.8114 83.7386C9.69817 72.6925 -4.04912 55.6866 1.09741 36.8408C6.93317 15.4712 26.5488 -1.30959 48.6573 0.080539Z" fill="#E8EFF4"/>
<g clip-path="url(#clip0_7_221)">
<path d="M38.074 64H30.8333C29.2862 64 27.8025 63.3854 26.7085 62.2915C25.6146 61.1975 25 59.7138 25 58.1667V50.875C25 49.3279 25.6146 47.8442 26.7085 46.7502C27.8025 45.6562 29.2862 45.0417 30.8333 45.0417H43.7498C44.539 45.042 45.3148 45.2461 46.0021 45.6342C46.6893 46.0223 47.2648 46.5812 47.6727 47.2569L52.3642 42.1017C52.7522 41.6749 53.2206 41.3289 53.7424 41.0833C54.2643 40.8376 54.8295 40.6973 55.4056 40.6702C55.9817 40.6431 56.5576 40.7298 57.1002 40.9254C57.6428 41.121 58.1415 41.4216 58.5679 41.81C59.4187 42.5916 59.9285 43.6759 59.9877 44.8297C60.0469 45.9834 59.6507 47.1142 58.8844 47.9788L48.9677 59.116C47.5985 60.6517 45.9202 61.8806 44.0428 62.7223C42.1654 63.564 40.1314 63.9994 38.074 64ZM30.8333 47.9583C30.0598 47.9583 29.3179 48.2656 28.7709 48.8126C28.224 49.3596 27.9167 50.1015 27.9167 50.875V58.1667C27.9167 58.9402 28.224 59.6821 28.7709 60.2291C29.3179 60.776 30.0598 61.0833 30.8333 61.0833H38.074C39.7188 61.0827 41.345 60.7344 42.8459 60.0614C44.3468 59.3883 45.6885 58.4057 46.7831 57.1779L56.7071 46.0392C56.9647 45.7489 57.0981 45.3691 57.0785 44.9815C57.0588 44.5939 56.8878 44.2296 56.6021 43.9669C56.3116 43.7057 55.9307 43.5681 55.5404 43.5833C55.3469 43.5915 55.157 43.6382 54.9817 43.7205C54.8065 43.8029 54.6494 43.9194 54.5196 44.0631L48.065 51.1667C47.7816 51.9509 47.2906 52.6435 46.6444 53.1705C45.9982 53.6976 45.221 54.0393 44.3958 54.1592L36.8694 55.2354C36.4865 55.2903 36.0974 55.1909 35.7878 54.959C35.4782 54.7271 35.2735 54.3817 35.2185 53.9988C35.1636 53.6158 35.2631 53.2268 35.495 52.9172C35.7269 52.6076 36.0723 52.4028 36.4552 52.3479L43.9831 51.2731C44.401 51.2147 44.7811 50.9999 45.0467 50.672C45.3122 50.3441 45.4435 49.9277 45.4138 49.5068C45.3842 49.0859 45.1959 48.692 44.8871 48.4045C44.5782 48.1171 44.1717 47.9576 43.7498 47.9583H30.8333ZM41.0417 42.2329C40.3807 42.2347 39.739 42.0103 39.2231 41.5971C36.7265 39.5933 33.75 36.5833 33.75 33.6667C33.7142 32.4684 34.1544 31.3048 34.9742 30.4303C35.7941 29.5557 36.927 29.0415 38.125 29C39.2149 29.0042 40.2605 29.4314 41.0417 30.1915C41.8228 29.4314 42.8685 29.0042 43.9583 29C45.1564 29.0415 46.2892 29.5557 47.1091 30.4303C47.929 31.3048 48.3691 32.4684 48.3333 33.6667C48.3333 36.5833 45.3569 39.5933 42.8587 41.5985C42.3431 42.011 41.702 42.2348 41.0417 42.2329V42.2329ZM38.125 31.9167C37.7011 31.9592 37.3109 32.1664 37.0382 32.4936C36.7655 32.8209 36.6321 33.2421 36.6667 33.6667C36.6667 34.9792 38.3452 37.1521 41.0504 39.3235C43.7381 37.1521 45.4167 34.9792 45.4167 33.6667C45.4513 33.2421 45.3179 32.8209 45.0452 32.4936C44.7724 32.1664 44.3822 31.9592 43.9583 31.9167C43.5345 31.9592 43.1442 32.1664 42.8715 32.4936C42.5988 32.8209 42.4654 33.2421 42.5 33.6667C42.5 34.0534 42.3464 34.4244 42.0729 34.6979C41.7994 34.9714 41.4284 35.125 41.0417 35.125C40.6549 35.125 40.284 34.9714 40.0105 34.6979C39.737 34.4244 39.5833 34.0534 39.5833 33.6667C39.6179 33.2421 39.4845 32.8209 39.2118 32.4936C38.9391 32.1664 38.5489 31.9592 38.125 31.9167V31.9167Z" fill="#2E53F2"/>
</g>
<defs>
<clipPath id="clip0_7_221">
<rect width="35" height="35" fill="white" transform="translate(25 29)"/>
</clipPath>
</defs>
</svg>
