<svg width="91" height="93" viewBox="0 0 91 93" fill="none" xmlns="http://www.w3.org/2000/svg">
<path fill-rule="evenodd" clip-rule="evenodd" d="M42.1441 0.00931836C63.69 -0.434981 82.2158 15.0593 88.4839 35.678C94.404 55.1523 85.5507 75.8731 68.6589 87.2292C53.4798 97.4338 33.9922 93.0714 19.2828 82.2007C4.9999 71.6453 -3.42395 54.5856 1.33528 37.4751C6.80622 17.806 21.7326 0.430227 42.1441 0.00931836Z" fill="#E8EFF4"/>
<g clip-path="url(#clip0_7_221)">
<path d="M46.9584 52.333C49.2658 52.333 51.5215 51.6488 53.44 50.3668C55.3586 49.0849 56.854 47.2628 57.737 45.131C58.62 42.9992 58.851 40.6534 58.4009 38.3903C57.9507 36.1272 56.8396 34.0484 55.208 32.4168C53.5763 30.7851 51.4975 29.674 49.2344 29.2238C46.9713 28.7737 44.6255 29.0047 42.4937 29.8877C40.3619 30.7708 38.5398 32.2661 37.2579 34.1847C35.9759 36.1033 35.2917 38.3589 35.2917 40.6663C35.2952 43.7595 36.5255 46.7249 38.7126 48.9121C40.8998 51.0992 43.8653 52.3295 46.9584 52.333ZM46.9584 31.9163C48.689 31.9163 50.3807 32.4295 51.8196 33.391C53.2585 34.3524 54.3801 35.719 55.0423 37.3179C55.7046 38.9167 55.8779 40.676 55.5402 42.3734C55.2026 44.0707 54.3693 45.6298 53.1456 46.8535C51.9219 48.0772 50.3628 48.9106 48.6654 49.2482C46.9681 49.5858 45.2088 49.4125 43.6099 48.7503C42.011 48.088 40.6445 46.9665 39.683 45.5276C38.7216 44.0886 38.2084 42.3969 38.2084 40.6663C38.2107 38.3464 39.1333 36.1222 40.7737 34.4817C42.4142 32.8413 44.6384 31.9187 46.9584 31.9163V31.9163ZM61.4061 50.5436C59.9363 52.6852 58.008 54.4724 55.7611 55.7756C53.5143 57.0787 51.0054 57.865 48.4167 58.0774V61.083H54.25C54.6368 61.083 55.0078 61.2366 55.2812 61.5101C55.5547 61.7836 55.7084 62.1546 55.7084 62.5413C55.7084 62.9281 55.5547 63.299 55.2812 63.5725C55.0078 63.846 54.6368 63.9997 54.25 63.9997H39.6667C39.2799 63.9997 38.909 63.846 38.6355 63.5725C38.362 63.299 38.2084 62.9281 38.2084 62.5413C38.2084 62.1546 38.362 61.7836 38.6355 61.5101C38.909 61.2366 39.2799 61.083 39.6667 61.083H45.5V58.092C42.3171 57.8272 39.2675 56.6959 36.6819 54.8209C34.0963 52.9459 32.0734 50.3988 30.8327 47.4557C29.592 44.5127 29.1808 41.2861 29.6437 38.1259C30.1066 34.9657 31.4259 31.9926 33.4586 29.529C33.705 29.2308 34.0597 29.0427 34.4448 29.0061C34.8299 28.9694 35.2137 29.0873 35.5119 29.3336C35.8101 29.58 35.9982 29.9347 36.0349 30.3198C36.0715 30.7049 35.9537 31.0888 35.7073 31.387C34.4554 32.9073 33.5244 34.6654 32.9705 36.5554C32.4166 38.4453 32.2512 40.4279 32.4843 42.3835C32.7175 44.339 33.3443 46.2271 34.327 47.9339C35.3097 49.6406 36.6279 51.1306 38.2022 52.3141C39.7764 53.4975 41.574 54.3498 43.4866 54.8195C45.3992 55.2893 47.3871 55.3668 49.3305 55.0473C51.2739 54.7279 53.1324 54.0182 54.794 52.9609C56.4556 51.9036 57.8858 50.5208 58.9984 48.8957C59.2169 48.5764 59.5533 48.357 59.9336 48.2858C60.3139 48.2145 60.7069 48.2973 61.0262 48.5158C61.3455 48.7343 61.5649 49.0708 61.6361 49.451C61.7074 49.8313 61.6246 50.2243 61.4061 50.5436Z" fill="#2E53F2"/>
</g>
<defs>
<clipPath id="clip0_7_221">
<rect width="35" height="35" fill="white" transform="translate(28 29)"/>
</clipPath>
</defs>
</svg>
