<svg width="93" height="91" viewBox="0 0 93 91" fill="none" xmlns="http://www.w3.org/2000/svg">
<path fill-rule="evenodd" clip-rule="evenodd" d="M45.3228 0.00163843C67.5043 -0.190645 86.3315 16.565 91.9955 38.0121C96.8658 56.4536 83.2768 72.995 67.3857 83.544C53.7957 92.5655 36.645 92.8555 23.1235 83.7316C7.83425 73.4149 -3.65115 56.6286 1.07569 38.8002C6.63354 17.8374 23.6365 0.189629 45.3228 0.00163843Z" fill="#E8EFF4"/>
<g clip-path="url(#clip0_7_221)">
<path d="M46.5 44.5C48.2306 44.5 49.9223 43.9868 51.3612 43.0254C52.8002 42.0639 53.9217 40.6973 54.5839 39.0985C55.2462 37.4996 55.4195 35.7403 55.0819 34.043C54.7443 32.3456 53.9109 30.7865 52.6872 29.5628C51.4635 28.3391 49.9044 27.5058 48.207 27.1681C46.5097 26.8305 44.7504 27.0038 43.1515 27.6661C41.5527 28.3283 40.1861 29.4498 39.2246 30.8888C38.2632 32.3277 37.75 34.0194 37.75 35.75C37.7523 38.0699 38.6749 40.2942 40.3154 41.9346C41.9558 43.5751 44.1801 44.4977 46.5 44.5ZM46.5 29.9167C47.6537 29.9167 48.7815 30.2588 49.7408 30.8998C50.7001 31.5407 51.4478 32.4518 51.8893 33.5177C52.3308 34.5836 52.4463 35.7565 52.2212 36.888C51.9962 38.0196 51.4406 39.059 50.6248 39.8748C49.809 40.6906 48.7696 41.2462 47.638 41.4713C46.5065 41.6963 45.3336 41.5808 44.2677 41.1393C43.2018 40.6978 42.2907 39.9501 41.6498 38.9908C41.0088 38.0315 40.6667 36.9037 40.6667 35.75C40.6667 34.2029 41.2812 32.7192 42.3752 31.6252C43.4692 30.5313 44.9529 29.9167 46.5 29.9167V29.9167Z" fill="#2E53F2"/>
<path d="M46.5 47.4175C43.0202 47.4213 39.6841 48.8054 37.2235 51.266C34.7629 53.7265 33.3789 57.0627 33.375 60.5425C33.375 60.9293 33.5286 61.3002 33.8021 61.5737C34.0756 61.8472 34.4466 62.0008 34.8333 62.0008C35.2201 62.0008 35.591 61.8472 35.8645 61.5737C36.138 61.3002 36.2917 60.9293 36.2917 60.5425C36.2917 57.8351 37.3672 55.2385 39.2816 53.3241C41.1961 51.4097 43.7926 50.3341 46.5 50.3341C49.2074 50.3341 51.8039 51.4097 53.7184 53.3241C55.6328 55.2385 56.7083 57.8351 56.7083 60.5425C56.7083 60.9293 56.862 61.3002 57.1355 61.5737C57.409 61.8472 57.7799 62.0008 58.1667 62.0008C58.5534 62.0008 58.9244 61.8472 59.1979 61.5737C59.4714 61.3002 59.625 60.9293 59.625 60.5425C59.6211 57.0627 58.2371 53.7265 55.7765 51.266C53.3159 48.8054 49.9798 47.4213 46.5 47.4175V47.4175Z" fill="#2E53F2"/>
</g>
<defs>
<clipPath id="clip0_7_221">
<rect width="35" height="35" fill="white" transform="translate(29 27)"/>
</clipPath>
</defs>
</svg>
