<svg width="24" height="24" viewBox="0 0 24 24" fill="none" xmlns="http://www.w3.org/2000/svg">
<g clip-path="url(#clip0_3105_69)">
<path d="M10.007 3L8 2.986C7.9963 2.19278 7.67859 1.43331 7.11639 0.873724C6.55418 0.314139 5.79323 -8.63726e-06 5 1.78109e-10L3 1.7811e-10C2.20435 1.7811e-10 1.44129 0.31607 0.87868 0.87868C0.31607 1.44129 0 2.20435 0 3L0 5C-2.16263e-06 5.79444 0.315107 6.55644 0.876203 7.11885C1.4373 7.68126 2.19856 7.99815 2.993 8L2.979 9.993C2.97808 10.1244 3.00306 10.2547 3.05253 10.3764C3.102 10.4982 3.17497 10.609 3.26729 10.7025C3.3596 10.796 3.46945 10.8704 3.59054 10.9215C3.71163 10.9725 3.84159 10.9992 3.973 11H3.979C4.24301 11 4.49631 10.8956 4.68364 10.7096C4.87098 10.5236 4.97715 10.271 4.979 10.007L4.993 8H5C5.79565 8 6.55871 7.68393 7.12132 7.12132C7.68393 6.55871 8 5.79565 8 5V4.986L9.993 5H10C10.1313 5.00046 10.2614 4.97505 10.3829 4.92522C10.5045 4.87539 10.6149 4.80212 10.7081 4.70958C10.8013 4.61705 10.8754 4.50707 10.926 4.38592C10.9767 4.26477 11.003 4.13482 11.0035 4.0035C11.004 3.87218 10.9785 3.74205 10.9287 3.62055C10.8789 3.49905 10.8056 3.38855 10.7131 3.29537C10.6205 3.20218 10.5106 3.12814 10.3894 3.07746C10.2683 3.02678 10.1383 3.00046 10.007 3ZM6 5C6 5.26522 5.89464 5.51957 5.70711 5.70711C5.51957 5.89464 5.26522 6 5 6H3C2.73478 6 2.48043 5.89464 2.29289 5.70711C2.10536 5.51957 2 5.26522 2 5V3C2 2.73478 2.10536 2.48043 2.29289 2.29289C2.48043 2.10536 2.73478 2 3 2H5C5.26522 2 5.51957 2.10536 5.70711 2.29289C5.89464 2.48043 6 2.73478 6 3V5Z" fill="#ffffff"/>
<path d="M20.9998 0H18.9998C18.2054 -2.16263e-06 17.4434 0.315107 16.881 0.876203C16.3186 1.4373 16.0017 2.19856 15.9998 2.993L14.0058 2.979H13.9998C13.7346 2.97807 13.4799 3.08254 13.2917 3.26942C13.1035 3.4563 12.9973 3.71028 12.9963 3.9755C12.9954 4.24072 13.0999 4.49544 13.2868 4.68363C13.4736 4.87182 13.7276 4.97807 13.9928 4.979L15.9998 4.993V5C15.9998 5.79565 16.3159 6.55871 16.8785 7.12132C17.4411 7.68393 18.2042 8 18.9998 8H19.0138L18.9998 9.993C18.9989 10.1243 19.0239 10.2545 19.0733 10.3762C19.1227 10.4979 19.1956 10.6087 19.2878 10.7022C19.38 10.7957 19.4897 10.8701 19.6107 10.9212C19.7317 10.9723 19.8615 10.9991 19.9928 11H19.9998C20.2639 11 20.5172 10.8956 20.7045 10.7096C20.8918 10.5236 20.998 10.271 20.9998 10.007L21.0138 8C21.8071 7.9963 22.5665 7.67859 23.1261 7.11639C23.6857 6.55418 23.9999 5.79323 23.9998 5V3C23.9998 2.20435 23.6838 1.44129 23.1212 0.87868C22.5586 0.31607 21.7955 0 20.9998 0V0ZM21.9998 5C21.9998 5.26522 21.8945 5.51957 21.707 5.70711C21.5194 5.89464 21.2651 6 20.9998 6H18.9998C18.7346 6 18.4803 5.89464 18.2927 5.70711C18.1052 5.51957 17.9998 5.26522 17.9998 5V3C17.9998 2.73478 18.1052 2.48043 18.2927 2.29289C18.4803 2.10536 18.7346 2 18.9998 2H20.9998C21.2651 2 21.5194 2.10536 21.707 2.29289C21.8945 2.48043 21.9998 2.73478 21.9998 3V5Z" fill="#ffffff"/>
<path d="M21.0068 15.9995L21.0208 14.0055C21.0216 13.8742 20.9965 13.744 20.947 13.6224C20.8975 13.5007 20.8245 13.3901 20.7322 13.2966C20.6399 13.2032 20.5301 13.1289 20.4091 13.0779C20.288 13.0269 20.1582 13.0003 20.0268 12.9995H20.0208C19.7568 12.9995 19.5035 13.1039 19.3162 13.2899C19.1289 13.476 19.0227 13.7285 19.0208 13.9925L19.0068 15.9995H18.9998C18.2042 15.9995 17.4411 16.3156 16.8785 16.8782C16.3159 17.4408 15.9998 18.2039 15.9998 18.9995V19.0135L14.0068 18.9995H13.9998C13.7346 18.9986 13.4799 19.103 13.2917 19.2899C13.1035 19.4768 12.9973 19.7308 12.9963 19.996C12.9954 20.2612 13.0999 20.5159 13.2868 20.7041C13.4736 20.8923 13.7276 20.9986 13.9928 20.9995L15.9998 21.0135C16.0035 21.8067 16.3212 22.5662 16.8835 23.1258C17.4457 23.6854 18.2066 23.9995 18.9998 23.9995H20.9998C21.7955 23.9995 22.5586 23.6834 23.1212 23.1208C23.6838 22.5582 23.9998 21.7951 23.9998 20.9995V18.9995C23.9998 18.2051 23.6847 17.4431 23.1236 16.8807C22.5625 16.3183 21.8013 16.0014 21.0068 15.9995V15.9995ZM21.9998 20.9995C21.9998 21.2647 21.8945 21.5191 21.707 21.7066C21.5194 21.8941 21.2651 21.9995 20.9998 21.9995H18.9998C18.7346 21.9995 18.4803 21.8941 18.2927 21.7066C18.1052 21.5191 17.9998 21.2647 17.9998 20.9995V18.9995C17.9998 18.7343 18.1052 18.4799 18.2927 18.2924C18.4803 18.1049 18.7346 17.9995 18.9998 17.9995H20.9998C21.2651 17.9995 21.5194 18.1049 21.707 18.2924C21.8945 18.4799 21.9998 18.7343 21.9998 18.9995V20.9995Z" fill="#ffffff"/>
<path d="M10.007 19.0205L8 19.0065V18.9995C8 18.2039 7.68393 17.4408 7.12132 16.8782C6.55871 16.3156 5.79565 15.9995 5 15.9995H4.986L5 14.0065C5.00092 13.8752 4.97597 13.745 4.92656 13.6233C4.87716 13.5016 4.80427 13.3909 4.71206 13.2973C4.61985 13.2038 4.51013 13.1294 4.38915 13.0783C4.26818 13.0272 4.13832 13.0004 4.007 12.9995H4C3.73599 12.9995 3.48269 13.1039 3.29536 13.2899C3.10802 13.476 3.00185 13.7285 3 13.9925L2.986 15.9995C2.19278 16.0032 1.43331 16.3209 0.873724 16.8831C0.314139 17.4453 -8.63726e-06 18.2063 1.78109e-10 18.9995L1.78109e-10 20.9995C1.7811e-10 21.7951 0.31607 22.5582 0.87868 23.1208C1.44129 23.6834 2.20435 23.9995 3 23.9995H5C5.79444 23.9995 6.55644 23.6844 7.11885 23.1233C7.68126 22.5622 7.99815 21.8009 8 21.0065L9.994 21.0205H10C10.2652 21.0214 10.5199 20.917 10.7081 20.7301C10.8963 20.5432 11.0026 20.2892 11.0035 20.024C11.0044 19.7588 10.9 19.5041 10.7131 19.3159C10.5262 19.1277 10.2722 19.0214 10.007 19.0205V19.0205ZM6 20.9995C6 21.2647 5.89464 21.5191 5.70711 21.7066C5.51957 21.8941 5.26522 21.9995 5 21.9995H3C2.73478 21.9995 2.48043 21.8941 2.29289 21.7066C2.10536 21.5191 2 21.2647 2 20.9995V18.9995C2 18.7343 2.10536 18.4799 2.29289 18.2924C2.48043 18.1049 2.73478 17.9995 3 17.9995H5C5.26522 17.9995 5.51957 18.1049 5.70711 18.2924C5.89464 18.4799 6 18.7343 6 18.9995V20.9995Z" fill="#ffffff"/>
</g>
<defs>
<clipPath id="clip0_3105_69">
<rect width="24" height="24" fill="white"/>
</clipPath>
</defs>
</svg>
